<mxfile host="app.diagrams.net" agent="Mozilla/5.0 (Macintosh; Intel Mac OS X 10_15_7) AppleWebKit/537.36 (KHTML, like Gecko) Chrome/131.0.0.0 Safari/537.36" version="25.0.3">
  <diagram id="tGIg-mTEyAZ9vM1WZ4WF" name="第 1 页">
    <mxGraphModel dx="890" dy="521" grid="0" gridSize="10" guides="1" tooltips="1" connect="1" arrows="1" fold="1" page="1" pageScale="1" pageWidth="827" pageHeight="583" math="0" shadow="0">
      <root>
        <mxCell id="0" />
        <mxCell id="1" parent="0" />
        <mxCell id="H5QWfvy89m3g2mAVejrR-3" value="" style="edgeStyle=orthogonalEdgeStyle;rounded=0;orthogonalLoop=1;jettySize=auto;html=1;entryX=0;entryY=0.5;entryDx=0;entryDy=0;" parent="1" source="H5QWfvy89m3g2mAVejrR-1" target="H5QWfvy89m3g2mAVejrR-6" edge="1">
          <mxGeometry relative="1" as="geometry">
            <mxPoint x="320" y="185" as="targetPoint" />
          </mxGeometry>
        </mxCell>
        <mxCell id="H5QWfvy89m3g2mAVejrR-1" value="游戏" style="rounded=0;whiteSpace=wrap;html=1;" parent="1" vertex="1">
          <mxGeometry x="170" y="230" width="90" height="50" as="geometry" />
        </mxCell>
        <mxCell id="H5QWfvy89m3g2mAVejrR-6" value="看板" style="swimlane;" parent="1" vertex="1">
          <mxGeometry x="320" y="120" width="250" height="270" as="geometry">
            <mxRectangle x="320" y="120" width="60" height="23" as="alternateBounds" />
          </mxGeometry>
        </mxCell>
        <mxCell id="H5QWfvy89m3g2mAVejrR-23" value="" style="group" parent="H5QWfvy89m3g2mAVejrR-6" vertex="1" connectable="0">
          <mxGeometry x="20" y="110" width="210" height="50" as="geometry" />
        </mxCell>
        <mxCell id="H5QWfvy89m3g2mAVejrR-24" value="数据表" style="rounded=0;whiteSpace=wrap;html=1;" parent="H5QWfvy89m3g2mAVejrR-23" vertex="1">
          <mxGeometry width="90" height="50" as="geometry" />
        </mxCell>
        <mxCell id="H5QWfvy89m3g2mAVejrR-25" value="图表" style="rounded=0;whiteSpace=wrap;html=1;" parent="H5QWfvy89m3g2mAVejrR-23" vertex="1">
          <mxGeometry x="120" width="90" height="50" as="geometry" />
        </mxCell>
        <mxCell id="H5QWfvy89m3g2mAVejrR-26" value="" style="edgeStyle=orthogonalEdgeStyle;rounded=0;orthogonalLoop=1;jettySize=auto;html=1;" parent="H5QWfvy89m3g2mAVejrR-23" source="H5QWfvy89m3g2mAVejrR-24" target="H5QWfvy89m3g2mAVejrR-25" edge="1">
          <mxGeometry relative="1" as="geometry" />
        </mxCell>
        <mxCell id="H5QWfvy89m3g2mAVejrR-27" value="" style="group" parent="H5QWfvy89m3g2mAVejrR-6" vertex="1" connectable="0">
          <mxGeometry x="20" y="178" width="210" height="50" as="geometry" />
        </mxCell>
        <mxCell id="H5QWfvy89m3g2mAVejrR-28" value="数据表" style="rounded=0;whiteSpace=wrap;html=1;" parent="H5QWfvy89m3g2mAVejrR-27" vertex="1">
          <mxGeometry width="90" height="50" as="geometry" />
        </mxCell>
        <mxCell id="H5QWfvy89m3g2mAVejrR-29" value="图表" style="rounded=0;whiteSpace=wrap;html=1;" parent="H5QWfvy89m3g2mAVejrR-27" vertex="1">
          <mxGeometry x="120" width="90" height="50" as="geometry" />
        </mxCell>
        <mxCell id="H5QWfvy89m3g2mAVejrR-30" value="" style="edgeStyle=orthogonalEdgeStyle;rounded=0;orthogonalLoop=1;jettySize=auto;html=1;" parent="H5QWfvy89m3g2mAVejrR-27" source="H5QWfvy89m3g2mAVejrR-28" target="H5QWfvy89m3g2mAVejrR-29" edge="1">
          <mxGeometry relative="1" as="geometry" />
        </mxCell>
        <mxCell id="H5QWfvy89m3g2mAVejrR-22" value="" style="group" parent="H5QWfvy89m3g2mAVejrR-6" vertex="1" connectable="0">
          <mxGeometry x="20" y="40" width="210" height="50" as="geometry" />
        </mxCell>
        <mxCell id="H5QWfvy89m3g2mAVejrR-2" value="数据表" style="rounded=0;whiteSpace=wrap;html=1;" parent="H5QWfvy89m3g2mAVejrR-22" vertex="1">
          <mxGeometry width="90" height="50" as="geometry" />
        </mxCell>
        <mxCell id="H5QWfvy89m3g2mAVejrR-4" value="图表" style="rounded=0;whiteSpace=wrap;html=1;" parent="H5QWfvy89m3g2mAVejrR-22" vertex="1">
          <mxGeometry x="120" width="90" height="50" as="geometry" />
        </mxCell>
        <mxCell id="H5QWfvy89m3g2mAVejrR-5" value="" style="edgeStyle=orthogonalEdgeStyle;rounded=0;orthogonalLoop=1;jettySize=auto;html=1;" parent="H5QWfvy89m3g2mAVejrR-22" source="H5QWfvy89m3g2mAVejrR-2" target="H5QWfvy89m3g2mAVejrR-4" edge="1">
          <mxGeometry relative="1" as="geometry" />
        </mxCell>
        <mxCell id="H5QWfvy89m3g2mAVejrR-32" value="..." style="text;html=1;strokeColor=none;fillColor=none;align=center;verticalAlign=middle;whiteSpace=wrap;rounded=0;" parent="H5QWfvy89m3g2mAVejrR-6" vertex="1">
          <mxGeometry x="105" y="240" width="40" height="20" as="geometry" />
        </mxCell>
        <mxCell id="H5QWfvy89m3g2mAVejrR-7" value="分享" style="rounded=0;whiteSpace=wrap;html=1;" parent="1" vertex="1">
          <mxGeometry x="170" y="380" width="90" height="50" as="geometry" />
        </mxCell>
        <mxCell id="H5QWfvy89m3g2mAVejrR-13" value="分组" style="rounded=0;whiteSpace=wrap;html=1;" parent="1" vertex="1">
          <mxGeometry x="390" y="460" width="90" height="50" as="geometry" />
        </mxCell>
        <mxCell id="H5QWfvy89m3g2mAVejrR-20" style="edgeStyle=none;rounded=0;orthogonalLoop=1;jettySize=auto;html=1;exitX=0.5;exitY=0;exitDx=0;exitDy=0;entryX=0.5;entryY=1;entryDx=0;entryDy=0;" parent="1" source="H5QWfvy89m3g2mAVejrR-14" target="H5QWfvy89m3g2mAVejrR-13" edge="1">
          <mxGeometry relative="1" as="geometry" />
        </mxCell>
        <mxCell id="H5QWfvy89m3g2mAVejrR-14" value="团队" style="ellipse;whiteSpace=wrap;html=1;" parent="1" vertex="1">
          <mxGeometry x="330" y="550" width="75" height="50" as="geometry" />
        </mxCell>
        <mxCell id="H5QWfvy89m3g2mAVejrR-19" style="edgeStyle=none;rounded=0;orthogonalLoop=1;jettySize=auto;html=1;exitX=0.5;exitY=0;exitDx=0;exitDy=0;entryX=0.5;entryY=1;entryDx=0;entryDy=0;" parent="1" source="H5QWfvy89m3g2mAVejrR-15" target="H5QWfvy89m3g2mAVejrR-13" edge="1">
          <mxGeometry relative="1" as="geometry" />
        </mxCell>
        <mxCell id="H5QWfvy89m3g2mAVejrR-15" value="个人" style="ellipse;whiteSpace=wrap;html=1;" parent="1" vertex="1">
          <mxGeometry x="450" y="550" width="75" height="50" as="geometry" />
        </mxCell>
        <mxCell id="H5QWfvy89m3g2mAVejrR-33" value="创建" style="rounded=0;whiteSpace=wrap;html=1;" parent="1" vertex="1">
          <mxGeometry x="170" y="460" width="90" height="50" as="geometry" />
        </mxCell>
        <mxCell id="H5QWfvy89m3g2mAVejrR-35" value="编辑" style="rounded=0;whiteSpace=wrap;html=1;" parent="1" vertex="1">
          <mxGeometry x="170" y="530" width="90" height="50" as="geometry" />
        </mxCell>
        <mxCell id="H5QWfvy89m3g2mAVejrR-36" value="切换数据源" style="rounded=0;whiteSpace=wrap;html=1;" parent="1" vertex="1">
          <mxGeometry x="170" y="624" width="90" height="50" as="geometry" />
        </mxCell>
        <mxCell id="H5QWfvy89m3g2mAVejrR-37" value="看板" style="swimlane;" parent="1" vertex="1">
          <mxGeometry x="910" y="120" width="370" height="270" as="geometry">
            <mxRectangle x="320" y="120" width="60" height="23" as="alternateBounds" />
          </mxGeometry>
        </mxCell>
        <mxCell id="H5QWfvy89m3g2mAVejrR-50" value="..." style="text;html=1;strokeColor=none;fillColor=none;align=center;verticalAlign=middle;whiteSpace=wrap;rounded=0;" parent="H5QWfvy89m3g2mAVejrR-37" vertex="1">
          <mxGeometry x="166" y="240" width="40" height="20" as="geometry" />
        </mxCell>
        <mxCell id="H5QWfvy89m3g2mAVejrR-64" value="" style="group" parent="H5QWfvy89m3g2mAVejrR-37" vertex="1" connectable="0">
          <mxGeometry x="20" y="178" width="330" height="50" as="geometry" />
        </mxCell>
        <mxCell id="H5QWfvy89m3g2mAVejrR-55" value="游戏" style="rounded=0;whiteSpace=wrap;html=1;" parent="H5QWfvy89m3g2mAVejrR-64" vertex="1">
          <mxGeometry width="90" height="50" as="geometry" />
        </mxCell>
        <mxCell id="H5QWfvy89m3g2mAVejrR-43" value="数据表" style="rounded=0;whiteSpace=wrap;html=1;" parent="H5QWfvy89m3g2mAVejrR-64" vertex="1">
          <mxGeometry x="120" width="90" height="50" as="geometry" />
        </mxCell>
        <mxCell id="H5QWfvy89m3g2mAVejrR-63" style="edgeStyle=none;rounded=0;orthogonalLoop=1;jettySize=auto;html=1;exitX=1;exitY=0.5;exitDx=0;exitDy=0;entryX=0;entryY=0.5;entryDx=0;entryDy=0;" parent="H5QWfvy89m3g2mAVejrR-64" source="H5QWfvy89m3g2mAVejrR-55" target="H5QWfvy89m3g2mAVejrR-43" edge="1">
          <mxGeometry relative="1" as="geometry" />
        </mxCell>
        <mxCell id="H5QWfvy89m3g2mAVejrR-44" value="图表" style="rounded=0;whiteSpace=wrap;html=1;" parent="H5QWfvy89m3g2mAVejrR-64" vertex="1">
          <mxGeometry x="240" width="90" height="50" as="geometry" />
        </mxCell>
        <mxCell id="H5QWfvy89m3g2mAVejrR-45" value="" style="edgeStyle=orthogonalEdgeStyle;rounded=0;orthogonalLoop=1;jettySize=auto;html=1;" parent="H5QWfvy89m3g2mAVejrR-64" source="H5QWfvy89m3g2mAVejrR-43" target="H5QWfvy89m3g2mAVejrR-44" edge="1">
          <mxGeometry x="980" y="120" as="geometry" />
        </mxCell>
        <mxCell id="H5QWfvy89m3g2mAVejrR-65" value="" style="group" parent="H5QWfvy89m3g2mAVejrR-37" vertex="1" connectable="0">
          <mxGeometry x="20" y="40" width="330" height="50" as="geometry" />
        </mxCell>
        <mxCell id="H5QWfvy89m3g2mAVejrR-51" value="游戏" style="rounded=0;whiteSpace=wrap;html=1;" parent="H5QWfvy89m3g2mAVejrR-65" vertex="1">
          <mxGeometry width="90" height="50" as="geometry" />
        </mxCell>
        <mxCell id="H5QWfvy89m3g2mAVejrR-47" value="数据表" style="rounded=0;whiteSpace=wrap;html=1;" parent="H5QWfvy89m3g2mAVejrR-65" vertex="1">
          <mxGeometry x="120" width="90" height="50" as="geometry" />
        </mxCell>
        <mxCell id="H5QWfvy89m3g2mAVejrR-59" style="edgeStyle=none;rounded=0;orthogonalLoop=1;jettySize=auto;html=1;exitX=1;exitY=0.5;exitDx=0;exitDy=0;entryX=0;entryY=0.5;entryDx=0;entryDy=0;" parent="H5QWfvy89m3g2mAVejrR-65" source="H5QWfvy89m3g2mAVejrR-51" target="H5QWfvy89m3g2mAVejrR-47" edge="1">
          <mxGeometry x="860" y="120" as="geometry" />
        </mxCell>
        <mxCell id="H5QWfvy89m3g2mAVejrR-48" value="图表" style="rounded=0;whiteSpace=wrap;html=1;" parent="H5QWfvy89m3g2mAVejrR-65" vertex="1">
          <mxGeometry x="240" width="90" height="50" as="geometry" />
        </mxCell>
        <mxCell id="H5QWfvy89m3g2mAVejrR-49" value="" style="edgeStyle=orthogonalEdgeStyle;rounded=0;orthogonalLoop=1;jettySize=auto;html=1;" parent="H5QWfvy89m3g2mAVejrR-65" source="H5QWfvy89m3g2mAVejrR-47" target="H5QWfvy89m3g2mAVejrR-48" edge="1">
          <mxGeometry x="980" y="120" as="geometry" />
        </mxCell>
        <mxCell id="H5QWfvy89m3g2mAVejrR-66" value="" style="group" parent="H5QWfvy89m3g2mAVejrR-37" vertex="1" connectable="0">
          <mxGeometry x="20" y="110" width="330" height="50" as="geometry" />
        </mxCell>
        <mxCell id="H5QWfvy89m3g2mAVejrR-53" value="游戏" style="rounded=0;whiteSpace=wrap;html=1;" parent="H5QWfvy89m3g2mAVejrR-66" vertex="1">
          <mxGeometry width="90" height="50" as="geometry" />
        </mxCell>
        <mxCell id="H5QWfvy89m3g2mAVejrR-39" value="数据表" style="rounded=0;whiteSpace=wrap;html=1;" parent="H5QWfvy89m3g2mAVejrR-66" vertex="1">
          <mxGeometry x="120" width="90" height="50" as="geometry" />
        </mxCell>
        <mxCell id="H5QWfvy89m3g2mAVejrR-40" value="图表" style="rounded=0;whiteSpace=wrap;html=1;" parent="H5QWfvy89m3g2mAVejrR-66" vertex="1">
          <mxGeometry x="240" width="90" height="50" as="geometry" />
        </mxCell>
        <mxCell id="H5QWfvy89m3g2mAVejrR-41" value="" style="edgeStyle=orthogonalEdgeStyle;rounded=0;orthogonalLoop=1;jettySize=auto;html=1;" parent="H5QWfvy89m3g2mAVejrR-66" source="H5QWfvy89m3g2mAVejrR-39" target="H5QWfvy89m3g2mAVejrR-40" edge="1">
          <mxGeometry x="980" y="120" as="geometry" />
        </mxCell>
        <mxCell id="H5QWfvy89m3g2mAVejrR-58" style="edgeStyle=none;rounded=0;orthogonalLoop=1;jettySize=auto;html=1;exitX=1;exitY=0.5;exitDx=0;exitDy=0;" parent="1" source="H5QWfvy89m3g2mAVejrR-53" edge="1">
          <mxGeometry relative="1" as="geometry">
            <mxPoint x="990" y="255" as="targetPoint" />
          </mxGeometry>
        </mxCell>
      </root>
    </mxGraphModel>
  </diagram>
</mxfile>
